<?xml version="1.0" standalone="no"?>
<!DOCTYPE svg PUBLIC "-//W3C//DTD SVG 20010904//EN"
 "http://www.w3.org/TR/2001/REC-SVG-20010904/DTD/svg10.dtd">
<svg version="1.0" xmlns="http://www.w3.org/2000/svg"
 width="512.000000pt" height="512.000000pt" viewBox="0 0 512.000000 512.000000"
 preserveAspectRatio="xMidYMid meet">
<g transform="translate(0.000000,512.000000) scale(0.100000,-0.100000)"
fill="#000000" stroke="none">
<path d="M777 5104 c-45 -24 -47 -43 -47 -447 l0 -382 29 -51 c52 -90 292
-294 346 -294 21 0 134 73 206 134 90 76 160 160 202 246 l32 65 3 345 3 346
-26 24 c-25 24 -34 25 -156 28 l-129 4 0 -363 c0 -355 0 -363 -22 -394 -35
-51 -82 -79 -124 -72 -67 11 -64 -11 -64 428 l0 399 -112 0 c-81 -1 -121 -5
-141 -16z"/>
<path d="M3625 5111 c-57 -24 -56 -19 -53 -392 l3 -344 32 -65 c79 -159 356
-399 433 -375 36 11 173 120 241 191 115 120 109 93 109 533 0 218 -4 390 -10
405 -16 44 -57 56 -185 56 l-115 0 0 -399 0 -400 -22 -15 c-42 -30 -98 -14
-149 41 -49 52 -49 52 -49 422 l0 351 -107 -1 c-60 0 -117 -4 -128 -8z"/>
<path d="M1900 4954 c-41 -13 -94 -28 -117 -34 l-41 -10 -5 -268 c-5 -289 -7
-305 -68 -425 -83 -166 -291 -365 -446 -426 l-33 -13 0 -102 c0 -253 31 -710
70 -1036 23 -188 152 -935 164 -947 1 -2 44 -23 95 -48 102 -50 181 -101 271
-175 55 -46 60 -49 60 -28 0 41 20 310 31 423 21 225 59 483 159 1098 119 735
144 963 145 1312 0 304 -11 397 -71 586 -40 126 -69 139 -214 93z m-43 -1224
c-5 -232 5 -161 -146 -1100 -65 -407 -85 -454 -127 -307 -62 212 -96 526 -101
947 l-4 345 56 44 c74 59 175 166 255 271 l65 85 3 -35 c2 -19 2 -132 -1 -250z"/>
<path d="M3052 4960 c-26 -24 -63 -140 -94 -291 -21 -103 -23 -140 -23 -394 1
-366 18 -512 165 -1435 121 -756 170 -1161 170 -1402 0 -18 8 -14 53 24 82 70
197 145 291 189 47 22 86 42 86 44 0 2 13 74 29 162 141 757 201 1296 201
1819 l0 100 -39 17 c-164 73 -357 259 -440 424 -61 120 -63 136 -68 425 l-5
268 -41 10 c-23 6 -79 22 -123 36 -99 29 -134 30 -162 4z m283 -1037 c39 -52
118 -142 178 -199 l107 -103 0 -348 c0 -365 -11 -522 -59 -808 -58 -346 -81
-309 -181 291 -115 689 -140 885 -140 1091 0 214 -4 211 95 76z"/>
<path d="M379 4791 l-29 -29 0 -157 c0 -393 58 -687 300 -1520 190 -654 226
-792 290 -1105 17 -85 33 -156 34 -157 1 -1 42 -11 91 -22 50 -10 103 -24 119
-30 16 -7 31 -9 34 -7 2 3 -12 90 -32 193 -118 619 -176 1158 -176 1650 l0
162 -56 32 c-116 66 -262 198 -332 300 -69 102 -72 119 -72 428 0 315 7 291
-87 291 -47 0 -59 -4 -84 -29z"/>
<path d="M4583 4813 c-10 -3 -13 -69 -13 -279 0 -306 -5 -334 -71 -431 -71
-104 -216 -235 -333 -302 l-56 -32 0 -162 c0 -491 -56 -1014 -176 -1650 -20
-104 -34 -190 -32 -192 1 -2 44 8 93 21 50 13 99 24 110 24 37 0 44 15 65 125
55 283 118 526 300 1150 236 807 286 1055 297 1457 l6 217 -31 30 c-30 30
-114 43 -159 24z"/>
<path d="M870 1597 c-118 -93 -193 -201 -225 -324 -29 -109 -36 -101 143 -162
224 -76 500 -186 554 -220 101 -64 233 -324 264 -521 4 -22 9 -40 13 -40 3 0
74 42 158 93 179 108 169 88 160 296 -6 159 -36 290 -92 408 -102 211 -395
392 -790 489 -128 31 -120 31 -185 -19z"/>
<path d="M4045 1611 c-387 -101 -671 -280 -770 -486 -71 -147 -114 -414 -91
-566 l6 -44 154 -93 c84 -50 155 -92 158 -92 3 0 8 18 12 40 31 197 163 457
264 521 54 34 327 143 554 220 179 61 172 53 143 162 -32 123 -120 247 -235
332 -57 42 -56 42 -195 6z"/>
<path d="M425 845 c-86 -86 -179 -168 -240 -212 -174 -124 -176 -126 -183
-359 -7 -245 8 -274 147 -274 80 0 80 28 0 141 -55 78 -53 80 113 202 64 47
152 117 197 156 84 75 91 79 91 57 0 -7 6 -19 14 -25 8 -7 17 -24 21 -38 9
-36 62 -114 130 -191 68 -78 69 -74 -10 -162 -50 -56 -64 -78 -60 -94 5 -15 4
-17 -3 -7 -9 12 -32 -11 -32 -32 0 -6 155 3 250 14 224 27 459 101 571 180 26
18 26 20 14 71 -29 127 -115 371 -134 383 -5 2 -46 -21 -92 -52 -198 -133
-324 -170 -374 -111 -53 63 -24 120 83 161 72 29 222 113 222 125 0 4 -35 20
-77 35 -311 114 -489 177 -498 175 -5 -1 -73 -65 -150 -143z m252 -782 c-4 -3
-10 -3 -14 0 -3 4 0 7 7 7 7 0 10 -3 7 -7z"/>
<path d="M4465 966 c-33 -12 -158 -58 -277 -102 -120 -43 -218 -82 -218 -86 0
-12 150 -96 222 -125 107 -41 136 -98 83 -161 -50 -59 -176 -22 -374 111 -46
32 -86 57 -88 57 -16 0 -110 -262 -136 -377 -17 -74 -18 -73 88 -126 166 -83
419 -140 658 -149 67 -3 77 -1 77 14 0 21 -16 32 -24 16 -3 -7 -3 -3 0 9 4 17
-10 38 -61 93 -36 39 -65 78 -65 85 0 8 27 44 60 82 54 62 86 116 138 230 l19
43 103 -91 c57 -50 153 -127 212 -171 117 -87 124 -99 88 -153 -11 -16 -33
-50 -50 -75 -50 -76 -44 -90 41 -90 150 0 164 25 157 274 -7 233 -9 235 -183
359 -57 41 -162 133 -244 214 -80 79 -150 143 -155 142 -6 0 -38 -11 -71 -23z
m-8 -903 c-4 -3 -10 -3 -14 0 -3 4 0 7 7 7 7 0 10 -3 7 -7z"/>
</g>
</svg>
