<?xml version="1.0" ?>
<svg xmlns="http://www.w3.org/2000/svg" xmlns:ev="http://www.w3.org/2001/xml-events" xmlns:xlink="http://www.w3.org/1999/xlink" baseProfile="full" height="600px" version="1.1" viewBox="0 0 512 512" width="370px">
	<defs/>
	<path d="M 256.0,17.12 C 175.945,17.12 109.03999999999999,28.580000000000002 109.03999999999999,103.414 C 112.216,149.724 136.905,152.144 156.58599999999998,190.93900000000002 C 189.909,256.25600000000003 183.148,261.862 200.08599999999998,299.60900000000004 C 201.28799999999998,302.28700000000003 202.356,305.18500000000006 203.34599999999998,308.21900000000005 C 212.72799999999998,310.46900000000005 221.908,312.02600000000007 230.01,312.19200000000006 L 232.018,308.15700000000004 L 190.781,217.20700000000005 C 167.45100000000002,158.01300000000003 125.247,135.52300000000005 125.47800000000001,104.72900000000006 C 125.781,64.25200000000007 153.63500000000002,35.31900000000006 255.321,35.88900000000005 C 360.483,36.476000000000056 386.204,63.29300000000005 387.403,104.86200000000005 C 388.01500000000004,126.06900000000005 343.047,162.87200000000004 323.083,220.49200000000005 L 275.327,312.15200000000004 C 286.207,311.78200000000004 298.911,309.03600000000006 311.425,305.47400000000005 C 312.135,303.76400000000007 313.112,302.19200000000006 313.63800000000003,300.51400000000007 C 326.21200000000005,260.3640000000001 325.682,254.68400000000008 357.27400000000006,192.75700000000006 C 378.78600000000006,154.54900000000006 397.9920000000001,143.95700000000005 402.96000000000004,103.41300000000007 C 402.96000000000004,28.58000000000007 336.05500000000006,17.118000000000066 256.0,17.118000000000066 L 256.0,17.12 M 252.166,294.857 L 237.834,324.6 C 214.814,324.124 181.864,311.5 163.582,305.127 C 165.388,317.855 178.969,347.592 179.744,363.303 L 152.152,369.035 L 180.37699999999998,399.615 C 180.14999999999998,424.675 163.332,457.45300000000003 156.63699999999997,475.053 C 162.38399999999996,474.32 187.69399999999996,465.463 194.07699999999997,464.898 L 191.3,494.88 L 240.674,466.988 C 240.19400000000002,465.624 239.91400000000002,464.158 239.91400000000002,462.628 C 239.91400000000002,455.66999999999996 245.294,449.998 252.16400000000002,449.488 C 259.034,449.998 264.41200000000003,455.67 264.41200000000003,462.628 C 264.41200000000003,464.15999999999997 264.13000000000005,465.62399999999997 263.65400000000005,466.988 L 313.02900000000005,494.881 L 310.25300000000004,464.899 C 316.63700000000006,465.466 341.94700000000006,474.321 347.69300000000004,475.054 C 340.999,457.45399999999995 324.19300000000004,424.674 323.95300000000003,399.616 L 352.177,369.036 L 324.58500000000004,363.304 C 325.36100000000005,347.594 338.94500000000005,317.856 340.749,305.128 C 322.466,311.503 289.519,324.128 266.497,324.601 L 252.16500000000002,294.858 L 252.166,294.857 M 176.209,319.10400000000004 C 191.739,325.319 215.549,333.53400000000005 232.40300000000002,334.09600000000006 L 227.478,342.6360000000001 C 232.46200000000002,344.5330000000001 236.0,349.2540000000001 236.0,354.8810000000001 C 236.0,362.1760000000001 230.02,368.0810000000001 222.678,368.0810000000001 C 216.078,368.0810000000001 210.646,363.29100000000005 209.608,357.03100000000006 L 189.656,361.21100000000007 C 188.95600000000002,350.13500000000005 180.98600000000002,330.77400000000006 176.20600000000002,319.1050000000001 L 176.209,319.10400000000004 M 328.122,319.10400000000004 C 323.34200000000004,330.77400000000006 315.372,350.134 314.672,361.211 L 294.72200000000004,357.031 A 13.236,13.236 0.0 0,1 281.65200000000004,368.081 C 274.309,368.081 268.32900000000006,362.17600000000004 268.32900000000006,354.88100000000003 C 268.32900000000006,349.25500000000005 271.8670000000001,344.536 276.85300000000007,342.63800000000003 L 271.9290000000001,334.098 C 288.7830000000001,333.536 312.58900000000006,325.32 328.12200000000007,319.105 L 328.122,319.10400000000004 M 252.16700000000003,354.34600000000006 L 263.08900000000006,373.27600000000007 C 260.7710000000001,374.16100000000006 259.17300000000006,376.33400000000006 259.17300000000006,378.9510000000001 C 259.17300000000006,382.3450000000001 261.9460000000001,385.10300000000007 265.36300000000006,385.10300000000007 C 268.43300000000005,385.10300000000007 270.94000000000005,382.93700000000007 271.42300000000006,380.02600000000007 L 298.13300000000004,385.5810000000001 L 279.946,405.29100000000005 C 278.81600000000003,403.75100000000003 276.958,402.8430000000001 274.896,402.8430000000001 C 271.48,402.8430000000001 268.708,405.54300000000006 268.708,408.93500000000006 C 268.708,412.32700000000006 271.48,415.08700000000005 274.894,415.08700000000005 C 275.594,415.08700000000005 276.226,414.94500000000005 276.85200000000003,414.72700000000003 L 279.94500000000005,441.485 L 257.02500000000003,431.093 C 257.252,430.459 257.27900000000005,429.833 257.27900000000005,429.12 C 257.27900000000005,426.075 255.08500000000006,423.62 252.16700000000006,423.146 C 249.25100000000006,423.622 247.05200000000005,426.076 247.05200000000005,429.119 C 247.05200000000005,429.83200000000005 247.07200000000006,430.454 247.30600000000004,431.091 L 224.38800000000003,441.483 L 227.48000000000005,414.726 C 228.10600000000005,414.924 228.74000000000004,415.086 229.43600000000004,415.086 C 232.85100000000003,415.086 235.62300000000005,412.326 235.62300000000005,408.933 C 235.62300000000005,405.53999999999996 232.85300000000004,402.841 229.43500000000006,402.841 C 227.37200000000007,402.841 225.51500000000007,403.753 224.38500000000005,405.291 L 206.20100000000005,385.579 L 232.90800000000004,380.024 C 233.38800000000003,382.936 235.90100000000004,385.101 238.97100000000003,385.101 C 242.38600000000002,385.101 245.15800000000004,382.341 245.15800000000004,378.951 C 245.15800000000004,376.331 243.56200000000004,374.15900000000005 241.24400000000006,373.276 L 252.16600000000005,354.346 L 252.16700000000003,354.34600000000006 M 303.09700000000004,405.59800000000007 L 303.057,405.6480000000001 C 307.415,405.6480000000001 311.319,407.56500000000005 313.853,410.54800000000006 L 313.938,410.46100000000007 C 313.95799999999997,410.5470000000001 313.993,410.6050000000001 314.021,410.7180000000001 C 315.839,412.9310000000001 316.926,415.7010000000001 316.926,418.7200000000001 C 316.926,419.33600000000007 316.86899999999997,419.9200000000001 316.812,420.51200000000006 C 321.332,434.94000000000005 325.762,451.06200000000007 329.377,459.81200000000007 C 326.644,459.46400000000006 312.139,455.8760000000001 309.235,455.57000000000005 L 306.45500000000004,431.68000000000006 A 13.45,13.45 0.0 0,1 302.16300000000007,432.3980000000001 C 294.82000000000005,432.3980000000001 288.9030000000001,426.4940000000001 288.9030000000001,419.1980000000001 C 288.9030000000001,414.4080000000001 291.44500000000005,410.22300000000007 295.2800000000001,407.9100000000001 C 295.3020000000001,407.8880000000001 295.3930000000001,407.8900000000001 295.3930000000001,407.8260000000001 C 295.50700000000006,407.7130000000001 295.6910000000001,407.6840000000001 295.8350000000001,407.5700000000001 C 296.2050000000001,407.3440000000001 296.5790000000001,407.15800000000013 296.9700000000001,406.9700000000001 A 14.33,14.33 0.0 0,1 303.0950000000001,405.59800000000007 L 303.09700000000004,405.59800000000007 M 201.27400000000006,405.6480000000001 C 203.48800000000006,405.6480000000001 205.54400000000007,406.1480000000001 207.39900000000006,407.0230000000001 C 207.79300000000006,407.1930000000001 208.16600000000005,407.4030000000001 208.53400000000005,407.6210000000001 C 208.67600000000004,407.73500000000007 208.83700000000005,407.7650000000001 208.97600000000006,407.8780000000001 C 208.99800000000005,407.9000000000001 209.08900000000006,407.8980000000001 209.08900000000006,407.9620000000001 C 212.92300000000006,410.2760000000001 215.46600000000007,414.4600000000001 215.46600000000007,419.2520000000001 C 215.46600000000007,426.54700000000014 209.55000000000007,432.4520000000001 202.20800000000006,432.4520000000001 C 200.70800000000006,432.4520000000001 199.25800000000007,432.1980000000001 197.91200000000006,431.7360000000001 L 195.13200000000006,455.6260000000001 C 192.22900000000007,455.93000000000006 177.72200000000007,459.51900000000006 174.99200000000008,459.8660000000001 C 178.60700000000008,451.1160000000001 183.03800000000007,434.9960000000001 187.55700000000007,420.5660000000001 C 187.44200000000006,419.9760000000001 187.44200000000006,419.3930000000001 187.44200000000006,418.77600000000007 C 187.44200000000006,415.7560000000001 188.53200000000007,412.98600000000005 190.34700000000007,410.77200000000005 C 190.36700000000008,410.68700000000007 190.40200000000007,410.6290000000001 190.43100000000007,410.5160000000001 L 190.51700000000008,410.6020000000001 C 193.05000000000007,407.62000000000006 196.95500000000007,405.7020000000001 201.31300000000007,405.7020000000001 L 201.27300000000008,405.6500000000001 L 201.27400000000006,405.6480000000001" fill="#CD7F32" fill-opacity="1"/>
</svg>
