<?xml version="1.0" ?>
<svg xmlns="http://www.w3.org/2000/svg" xmlns:ev="http://www.w3.org/2001/xml-events" xmlns:xlink="http://www.w3.org/1999/xlink" baseProfile="full" height="342px" version="1.1" viewBox="-29.95700400000001 92.16065201590047 572.166008 325.21013580919436" width="600px">
	<defs/>
	<path d="M 408.256,119.46 L 370.556,171.625 L 390.126,216.051 L 424.926,178.837 L 408.256,119.46199999999999 L 408.256,119.46 M 494.33,131.97299999999998 L 384.44,249.498 L 334.01,135.02 L 258.84799999999996,267.967 L 171.89999999999998,136.18699999999998 L 138.56599999999997,250.30899999999997 L 17.922,132.83 L 57.221999999999994,260.43 C 59.166999999999994,260.082 61.16199999999999,259.89 63.202,259.89 C 82.014,259.89 97.46199999999999,275.342 97.46199999999999,294.152 C 97.46199999999999,307.97499999999997 89.11599999999999,319.974 77.22699999999999,325.37199999999996 L 82.564,342.70199999999994 C 94.98899999999999,368.16799999999995 154.427,387.8539999999999 259.14599999999996,389.90799999999996 C 369.95099999999996,392.08199999999994 437.26599999999996,372.36799999999994 449.0,342.70099999999996 L 448.998,342.70099999999996 L 453.355,322.441 C 436.519,320.327 423.33500000000004,305.82899999999995 423.33500000000004,288.455 C 423.33500000000004,269.645 438.785,254.19299999999998 457.598,254.19299999999998 C 461.111,254.19299999999998 464.50800000000004,254.73299999999998 467.708,255.73299999999998 L 494.33000000000004,131.97099999999998 L 494.33,131.97299999999998 M 102.56,134.01299999999998 L 103.78,190.34999999999997 L 129.34,215.23999999999995 L 138.93200000000002,182.39799999999997 L 102.56200000000001,134.01199999999997 L 102.56,134.01299999999998 M 253.145,136.92299999999997 L 228.662,188.28299999999996 L 257.617,232.16799999999995 L 282.53900000000004,188.08799999999997 L 253.14400000000003,136.92199999999997 L 253.145,136.92299999999997 M 457.598,272.885 C 448.886,272.885 442.023,279.747 442.023,288.457 C 442.023,297.167 448.886,304.031 457.598,304.031 C 466.31,304.031 473.17,297.168 473.17,288.458 C 473.17,279.74800000000005 466.31,272.886 457.598,272.886 L 457.598,272.885 M 63.2,278.58 C 54.49,278.58 47.627,285.44399999999996 47.627,294.154 C 47.627,302.86400000000003 54.489000000000004,309.727 63.201,309.727 C 71.914,309.727 78.774,302.86499999999995 78.774,294.154 C 78.774,285.444 71.914,278.58 63.202,278.58 L 63.2,278.58 M 193.53000000000003,296.42199999999997 C 212.34200000000004,296.42199999999997 227.79000000000002,311.87199999999996 227.79000000000002,330.68399999999997 C 227.79000000000002,349.49399999999997 212.342,364.94399999999996 193.53000000000003,364.94399999999996 C 174.71700000000004,364.94399999999996 159.26800000000003,349.49399999999997 159.26800000000003,330.68399999999997 C 159.26800000000003,311.87399999999997 174.71800000000002,296.42199999999997 193.52800000000002,296.42199999999997 L 193.53000000000003,296.42199999999997 M 324.764,296.42199999999997 C 343.576,296.42199999999997 359.024,311.87199999999996 359.024,330.68399999999997 C 359.024,349.49399999999997 343.576,364.94399999999996 324.764,364.94399999999996 C 305.951,364.94399999999996 290.502,349.49399999999997 290.502,330.68399999999997 C 290.502,311.87399999999997 305.952,296.42199999999997 324.764,296.42199999999997 M 193.529,315.11199999999997 C 184.816,315.11199999999997 177.956,321.972 177.956,330.68399999999997 C 177.956,339.39399999999995 184.816,346.258 193.528,346.258 C 202.238,346.258 209.1,339.394 209.1,330.68399999999997 C 209.1,321.97399999999993 202.23999999999998,315.111 193.527,315.111 L 193.529,315.11199999999997 M 324.76300000000003,315.11199999999997 C 316.05100000000004,315.11199999999997 309.19000000000005,321.972 309.19000000000005,330.68399999999997 C 309.19000000000005,339.39399999999995 316.0520000000001,346.258 324.76400000000007,346.258 C 333.47600000000006,346.258 340.3380000000001,339.394 340.3380000000001,330.68399999999997 C 340.3380000000001,321.97399999999993 333.47600000000006,315.111 324.76400000000007,315.111 L 324.76300000000003,315.11199999999997" fill="#B87333" fill-opacity="1"/>
</svg>
