<?xml version="1.0" ?>
<svg xmlns="http://www.w3.org/2000/svg" xmlns:ev="http://www.w3.org/2001/xml-events" xmlns:xlink="http://www.w3.org/1999/xlink" baseProfile="full" height="600px" version="1.1" viewBox="-17.45474798103965 -24.83040626811134 560.3204959620798 568.9088504570666" width="591px">
	<defs/>
	<path d="M 448.406,22.777 C 427.962,22.833000000000002 407.606,25.147000000000002 387.344,29.697000000000003 C 429.46999999999997,56.641000000000005 467.318,92.037 495.974,134.734 L 495.974,26.64 C 481.676,24.380000000000003 467.414,23.01 453.197,22.805 A 283.403,283.403 0.0 0,0 448.407,22.777 L 448.406,22.777 M 377.416,45.533 L 380.033,117.111 C 422.81600000000003,161.974 449.63100000000003,216.881 470.95500000000004,277.618 C 480.485,278.878 487.812,280.025 495.975,280.774 L 495.975,170.824 C 467.961,119.00600000000001 425.72700000000003,76.47100000000002 377.415,45.534000000000006 L 377.416,45.533 M 344.678,138.035 C 260.093,138.845 203.043,166.07 150.67,213.777 C 249.254,218.421 350.13599999999997,260.87199999999996 413.404,352.08 C 427.894,341.652 439.517,329.84 446.614,315.717 C 450.82399999999996,307.34299999999996 453.63899999999995,298.04999999999995 454.664,287.437 C 436.28999999999996,234.193 412.24199999999996,181.58700000000002 374.964,139.02700000000002 C 364.451,138.30700000000002 354.332,137.937 344.68399999999997,138.03500000000003 L 344.678,138.03500000000003 L 344.678,138.035 M 149.734,232.44 L 187.734,292.81 C 247.38400000000001,310.455 294.024,347.55 342.26,389.336 C 362.01,380.778 381.078,372.084 397.71999999999997,362.264 C 338.125,276.692 243.34999999999997,236.80400000000003 149.73399999999998,232.43900000000002 L 149.734,232.44 M 471.996,296.615 C 467.50399999999996,321.107 454.97799999999995,343.93100000000004 434.76599999999996,359.565 C 410.881,379.745 381.96799999999996,392.515 353.561,404.915 C 360.825,432.509 350.775,460.16700000000003 337.041,484.252 L 337.521,484.498 L 331.58500000000004,495.928 L 495.93800000000005,495.928 L 495.93800000000005,299.45 C 487.94100000000003,298.693 479.968,297.668 471.99800000000005,296.615 L 471.996,296.615 M 189.02,312.73 C 124.12700000000001,342.824 66.81200000000001,393.97 40.48000000000002,461.658 C 39.58000000000002,468.822 30.246000000000016,482.91200000000003 29.436000000000018,490.96500000000003 C 78.8,465.39 134.808,449.818 192.27,449.53 C 234.77300000000002,449.316 278.065,457.46 320.045,476.092 C 332.40500000000003,454.919 342.06800000000004,431.50399999999996 334.539,407.344 C 290.779,369.377 244.986,330.938 189.01899999999998,312.73 L 189.02,312.73 M 192.092,468.16200000000003 C 146.70800000000003,468.41400000000004 102.20200000000001,478.80400000000003 61.35500000000002,496.47200000000004 L 307.463,496.24800000000005 C 308.326,494.9080000000001 309.216,493.49800000000005 310.093,492.13300000000004 C 271.309,475.321 231.37300000000002,467.94300000000004 192.09300000000002,468.163 L 192.092,468.16200000000003" fill="#4B0082" fill-opacity="1"/>
</svg>
