<?xml version="1.0" ?>
<svg xmlns="http://www.w3.org/2000/svg" xmlns:ev="http://www.w3.org/2001/xml-events" xmlns:xlink="http://www.w3.org/1999/xlink" baseProfile="full" height="380px" version="1.1" viewBox="3.3280526807585744 96.18961548307232 505.34360966021296 319.6207690338553" width="600px">
	<defs/>
	<path d="M 255.157,123.0 C 186.497,123.0 118.05700000000002,141.922 72.29000000000002,178.275 C 72.52400000000002,192.625 74.10800000000002,213.899 81.62200000000001,226.505 C 192.25600000000003,166.16899999999998 318.058,166.16899999999998 428.692,226.505 C 436.205,213.899 437.79,192.625 438.024,178.275 C 392.257,141.922 323.817,123.0 255.157,123.0 M 454.967,199.05700000000002 C 454.643,202.037 454.24899999999997,205.07700000000003 453.721,208.139 C 451.495,221.06900000000002 447.508,234.597 437.731,244.119 C 423.295,262.756 396.925,274.581 364.873,282.722 C 332.392,290.973 293.79,295.0 255.157,295.0 C 216.525,295.0 177.92200000000003,290.972 145.442,282.723 C 113.53500000000001,274.619 87.272,262.855 72.79400000000001,244.363 C 60.81100000000001,232.381 56.56000000000001,215.577 55.024000000000015,200.506 C 41.29400000000001,227.762 43.521000000000015,262.628 55.69600000000001,299.154 C 69.988,342.03 129.406,389.0 255.156,389.0 C 380.906,389.0 440.326,342.03 454.618,299.154 L 454.718,298.85699999999997 L 454.838,298.57 C 469.97200000000004,261.858 470.44800000000004,226.587 454.968,199.057 L 454.967,199.05700000000002" fill="#FFD700" fill-opacity="1"/>
</svg>
