<?xml version="1.0" ?>
<svg xmlns="http://www.w3.org/2000/svg" xmlns:ev="http://www.w3.org/2001/xml-events" xmlns:xlink="http://www.w3.org/1999/xlink" baseProfile="full" height="600px" version="1.1" viewBox="-21.732406205636295 -25.588447332882307 557.3088124112727 564.9653059382254" width="592px">
	<defs/>
	<path d="M 76.28,21.688 C 49.902,30.994 32.89,47.608000000000004 24.906,71.218 C 58.686,94.048 106.68100000000001,141.20600000000002 125.781,186.031 C 133.401,203.911 139.701,224.11700000000002 143.751,245.157 C 149.059,242.187 177.457,285.933 169.251,278.313 C 167.346,276.54699999999997 146.649,265.65999999999997 147.126,272.783 C 148.516,293.553 149.28,309.063 145.906,329.063 C 137.112,381.203 88.938,451.251 88.938,451.251 C 111.306,472.354 124.82,479.078 163.81400000000002,487.03099999999995 L 240.81400000000002,386.626 C 269.797,409.496 246.23800000000003,450.626 269.03200000000004,449.096 C 290.494,447.654 271.182,407.861 287.47200000000004,387.251 C 304.422,409.849 323.82800000000003,428.51099999999997 343.189,444.376 C 345.279,446.5 344.666,382.899 348.939,396.782 C 353.101,410.30199999999996 362.663,448.842 367.409,462.032 C 380.396,475.32399999999996 389.904,486.45 405.846,489.62699999999995 C 442.764,496.98299999999995 439.398,487.43899999999996 475.126,467.53299999999996 C 475.126,467.53299999999996 413.106,393.49899999999997 398.65799999999996,348.659 C 383.83399999999995,302.649 377.29599999999994,250.147 391.15799999999996,203.84699999999998 C 406.94499999999994,151.10699999999997 488.938,70.75299999999999 488.938,70.75299999999999 C 484.175,65.14599999999999 480.491,60.76099999999998 477.252,57.06499999999998 C 473.752,53.07199999999998 441.982,72.51299999999998 438.658,69.50299999999999 C 435.362,66.51499999999999 460.51,41.045999999999985 455.752,37.752999999999986 C 450.318,33.99299999999999 443.399,29.618999999999986 433.78200000000004,23.689999999999984 C 401.692,62.73999999999998 374.48800000000006,86.80499999999998 321.158,120.06599999999999 C 317.12,96.54599999999999 319.413,82.86599999999999 301.814,66.12799999999999 C 284.214,49.38799999999999 246.18600000000004,36.79099999999998 212.627,65.53399999999999 C 197.805,78.22999999999999 200.869,98.702 193.157,117.06599999999999 C 168.36700000000002,74.25599999999999 102.84700000000001,29.621999999999986 76.28300000000002,21.691999999999993 L 76.28,21.688 M 273.157,141.03 C 276.789,150.412 275.06899999999996,160.308 271.657,169.656 C 268.245,179.00400000000002 262.885,188.24200000000002 257.032,197.031 C 253.408,202.477 249.6,207.671 245.87699999999998,212.626 C 256.667,208.864 268.10299999999995,205.39000000000001 279.37699999999995,210.032 L 290.06499999999994,214.43900000000002 L 283.18999999999994,223.72100000000003 C 279.31999999999994,228.93400000000003 276.06499999999994,233.52400000000003 273.2199999999999,237.72100000000003 C 276.81999999999994,235.92700000000002 280.6359999999999,234.32600000000002 284.7519999999999,233.15700000000004 C 288.2069999999999,232.17700000000005 294.2319999999999,234.20000000000005 296.3769999999999,237.15700000000004 C 298.5209999999999,240.11400000000003 298.69299999999987,242.37500000000003 298.90699999999987,244.43700000000004 C 299.3389999999999,248.56500000000005 298.9229999999999,252.57300000000004 298.3769999999999,257.12700000000007 C 297.2839999999999,266.23100000000005 295.3269999999999,276.99500000000006 294.8769999999999,283.1890000000001 L 276.9069999999999,281.8760000000001 C 277.5039999999999,273.6530000000001 279.52699999999993,263.12200000000007 280.50199999999995,255.0010000000001 C 280.52799999999996,254.7830000000001 280.50899999999996,254.7470000000001 280.5319999999999,254.5310000000001 C 271.6959999999999,259.52600000000007 262.01499999999993,267.2310000000001 249.97199999999992,272.28100000000006 L 224.437,283.0 L 238.78,259.312 C 243.944,250.792 248.972,241.464 258.0,228.09400000000002 C 254.975,228.76800000000003 251.837,229.60000000000002 248.656,230.71900000000002 C 243.37,232.57700000000003 238.11100000000002,234.72500000000002 233.562,236.562 C 229.014,238.39800000000002 225.686,239.89200000000002 221.782,240.71800000000002 L 200.75,245.186 L 212.344,227.061 C 218.204,217.906 231.25,203.299 242.064,187.061 C 247.469,178.941 252.141,170.616 254.75,163.467 C 257.36,156.317 257.633,150.77700000000002 256.375,147.52700000000002 L 273.155,141.02700000000002 L 273.157,141.03" fill="#8B4513" fill-opacity="1"/>
</svg>
