<?xml version="1.0" ?>
<svg xmlns="http://www.w3.org/2000/svg" xmlns:ev="http://www.w3.org/2001/xml-events" xmlns:xlink="http://www.w3.org/1999/xlink" baseProfile="full" height="428px" version="1.1" viewBox="-26.887800500000004 51.98589950000007 563.750601 402.01820100000003" width="600px">
	<defs/>
	<path d="M 322.248,85.684 L 61.432,224.717 L 20.287,334.65700000000004 L 27.52,338.50700000000006 L 181.193,420.3070000000001 L 489.688,256.0920000000001 L 451.936,156.18900000000008 L 322.248,85.68300000000008 L 322.248,85.684 M 441.283,180.87099999999998 L 466.39300000000003,247.32099999999997 L 363.833,301.91499999999996 L 430.39,186.64 L 441.283,180.86999999999998 L 441.283,180.87099999999998 M 351.707,228.28799999999998 L 284.957,343.9 L 243.28699999999998,366.082 L 315.48199999999997,247.462 L 351.707,228.28699999999998 L 351.707,228.28799999999998 M 72.38,248.78 L 100.59,263.713 L 46.578,317.725 L 72.38,248.78 M 283.207,264.547 L 211.19,382.87 L 211.45,383.03000000000003 L 194.242,392.19000000000005 L 200.03699999999998,308.57200000000006 L 283.207,264.5470000000001 L 283.207,264.547 M 117.87299999999999,272.85900000000004 L 134.83599999999998,281.83900000000006 L 74.39099999999999,342.28400000000005 L 57.46099999999999,333.27200000000005 L 117.874,272.85800000000006 L 117.87299999999999,272.85900000000004 M 181.42,306.9 L 175.24599999999998,395.96999999999997 L 121.14599999999999,367.17199999999997 L 181.42,306.9" fill="#5C5C5C" fill-opacity="1"/>
</svg>
