<?xml version="1.0" ?>
<svg xmlns="http://www.w3.org/2000/svg" xmlns:ev="http://www.w3.org/2001/xml-events" xmlns:xlink="http://www.w3.org/1999/xlink" baseProfile="full" height="460px" version="1.1" viewBox="-16.270687499999987 73.5556125 550.5083749999999 421.888775" width="600px">
	<defs/>
	<path d="M 317.727,108.904 L 222.53499999999997,205.49599999999998 L 195.60499999999996,292.311 L 213.14499999999995,329.034 L 233.56199999999995,338.32099999999997 L 266.74399999999997,283.239 L 278.041,279.62899999999996 L 339.791,306.479 L 360.051,293.481 L 364.521,249.781 L 375.94100000000003,303.415 L 365.319,317.577 L 369.091,319.217 L 374.329,325.717 L 381.161,360.06 L 437.138,293.28499999999997 L 451.118,293.515 L 473.515,322.09 L 464.062,269.846 L 434.01,166.81 L 317.73,108.904 L 317.727,108.904 M 123.61,120.896 L 94.08,173.0 L 89.477,200.62 L 115.45700000000001,192.178 L 127.161,199.555 L 127.245,200.189 L 155.54000000000002,260.054 L 169.31300000000002,255.51099999999997 L 180.25300000000001,260.179 L 184.175,268.38899999999995 L 203.692,205.47199999999995 L 202.618,172.13599999999997 L 162.468,171.61399999999998 L 132.736,147.83399999999997 L 166.796,158.72199999999998 L 209.286,150.99499999999998 L 235.32,166.87499999999997 L 271.602,130.05999999999997 A 332.698,332.698 0.0 0,0 263.022,126.53999999999998 L 183.442,136.66599999999997 L 179.91400000000002,136.41599999999997 L 123.60700000000001,120.89599999999997 L 123.61,120.896 M 372.94,157.31799999999998 L 419.998,223.33799999999997 L 422.105,285.84799999999996 L 396.822,226.14999999999995 L 331.5,165.74599999999995 L 372.94,157.31799999999996 L 372.94,157.31799999999998 M 110.74000000000001,212.63799999999998 L 46.506000000000014,233.51399999999998 L 29.796000000000014,312.066 L 80.59,317.64799999999997 L 81.186,310.508 L 118.84800000000001,273.801 L 110.74000000000001,212.641 L 110.74000000000001,212.63799999999998 M 167.428,275.08799999999997 L 130.988,287.104 L 99.344,317.94399999999996 L 121.93199999999999,348.811 L 179.25799999999998,350.551 L 195.75799999999998,334.39099999999996 L 167.428,275.08899999999994 L 167.428,275.08799999999997 M 278.094,299.27799999999996 L 233.78699999999998,372.82399999999996 L 233.754,429.96399999999994 L 331.018,442.17999999999995 L 375.26,422.65199999999993 L 357.594,333.84599999999995 L 278.094,299.27899999999994 L 278.094,299.27799999999996 M 443.8,313.36 L 396.957,369.236 L 397.24399999999997,371.01 L 462.39099999999996,384.897 L 488.17099999999994,369.971 L 443.80099999999993,313.358 L 443.8,313.36 M 305.418,329.25 L 344.648,352.092 L 358.05800000000005,402.75 L 331.23800000000006,426.588 L 286.22300000000007,424.035 L 324.7850000000001,395.793 L 327.2680000000001,356.563 L 305.41800000000006,329.251 L 305.418,329.25 M 67.048,383.088 L 58.278000000000006,411.598 L 71.43,460.096 L 162.467,448.186 L 163.787,421.768 L 101.20500000000001,389.77299999999997 L 67.049,383.08899999999994 L 67.048,383.088" fill="#696969" fill-opacity="1"/>
</svg>
