<?xml version="1.0" ?>
<svg xmlns="http://www.w3.org/2000/svg" xmlns:ev="http://www.w3.org/2001/xml-events" xmlns:xlink="http://www.w3.org/1999/xlink" baseProfile="full" height="557px" version="1.1" viewBox="-11.84501000000001 7.3659899999999965 535.67002 497.25802" width="600px">
	<defs/>
	<path d="M 268.4,48.99 L 42.55,335.0 L 82.2,335.0 L 158.10000000000002,230.8 L 172.70000000000002,241.4 L 104.40000000000002,335.0 L 131.90000000000003,335.0 L 160.10000000000002,304.6 L 158.50000000000003,335.0 L 275.3,335.0 L 470.9,48.99 L 420.29999999999995,48.99 L 270.29999999999995,268.9 L 255.49999999999994,258.7 L 398.6,48.99 L 363.70000000000005,48.99 L 315.90000000000003,115.5 L 301.3,104.9 L 341.5,48.99000000000001 L 268.4,48.99 M 479.0,69.08 L 289.0,346.8 L 289.0,377.5 L 357.9,276.7 L 372.7,286.9 L 289.0,409.3 L 289.0,441.6 L 479.0,149.3 L 479.0,137.60000000000002 L 457.0,143.40000000000003 L 479.0,110.10000000000004 L 479.0,69.08 M 32.98,353.0 L 32.98,463.0 L 56.809999999999995,463.0 L 67.35,424.9 L 78.48,463.0 L 116.1,463.0 C 113.89999999999999,457.3 112.69999999999999,451.2 112.69999999999999,444.8 C 112.69999999999999,426.2 123.1,409.8 138.6,398.5 C 154.1,387.3 174.8,380.7 197.5,380.7 C 220.2,380.7 240.9,387.3 256.4,398.5 C 262.0,402.6 267.0,407.4 271.0,412.7 L 271.0,353.0 L 32.98,353.0 M 197.5,398.7 C 178.3,398.7 161.1,404.4 149.2,413.09999999999997 C 137.2,421.79999999999995 130.7,432.9 130.7,444.79999999999995 C 130.7,451.19999999999993 132.6,457.29999999999995 136.2,462.99999999999994 L 152.5,462.99999999999994 C 149.2,458.29999999999995 147.1,452.8999999999999 147.1,446.8999999999999 C 147.1,435.69999999999993 154.2,426.49999999999994 163.6,420.5999999999999 C 172.9,414.5999999999999 184.9,411.3999999999999 198.0,411.3999999999999 C 211.1,411.3999999999999 223.1,414.5999999999999 232.4,420.5999999999999 C 241.8,426.4999999999999 248.9,435.69999999999993 248.9,446.8999999999999 C 248.9,452.8999999999999 246.8,458.2999999999999 243.5,462.99999999999994 L 258.8,462.99999999999994 C 262.40000000000003,457.29999999999995 264.3,451.19999999999993 264.3,444.79999999999995 C 264.3,432.9 257.8,421.79999999999995 245.8,413.09999999999997 C 233.9,404.4 216.70000000000002,398.7 197.5,398.7 M 198.0,429.4 C 188.0,429.4 179.0,432.09999999999997 173.2,435.79999999999995 C 167.39999999999998,439.49999999999994 165.1,443.4 165.1,446.9 C 165.1,450.4 167.4,454.29999999999995 173.2,458.0 C 176.5,460.1 180.79999999999998,461.9 185.7,463.0 L 210.29999999999998,463.0 C 215.2,461.9 219.49999999999997,460.1 222.79999999999998,458.0 C 228.6,454.3 230.89999999999998,450.4 230.89999999999998,446.9 C 230.89999999999998,443.4 228.59999999999997,439.5 222.79999999999998,435.79999999999995 C 216.99999999999997,432.09999999999997 207.99999999999997,429.4 197.99999999999997,429.4 L 198.0,429.4" fill="#8B4513" fill-opacity="1"/>
</svg>
